<svg width="175" height="49" viewBox="0 0 175 49" fill="none" xmlns="http://www.w3.org/2000/svg">
<path d="M18.6297 12.1985L12.5041 12.1129L6.38141 12.0303L0.261719 23.9071L6.39036 35.955L12.51 24.0782L18.6297 12.1985Z" fill="#0000FF"/>
<path d="M18.63 12.1984L12.5103 24.0781L6.39062 35.9549L12.5133 36.0375L12.5193 47.9999L18.639 36.1231L18.633 24.1607L18.63 12.1984Z" fill="black"/>
<path d="M18.626 12.1985L29.0721 18.1856L39.5093 24.1697L54.261 24.093L48.1324 12.045L33.3807 12.1218L18.626 12.1985Z" fill="#0000FF"/>
<path d="M18.626 12.1984L33.3807 12.1217L48.1324 12.045L37.6922 6.06086L42.0037 0L27.252 0.0767197L22.9405 6.13758L18.626 12.1984Z" fill="black"/>
<path d="M39.5126 24.1667L29.0724 30.145L18.6382 36.1232L12.5186 48L27.2732 47.9233L33.3929 36.0465L39.5126 24.1667Z" fill="#0000FF"/>
<path d="M39.5128 24.1667L33.3931 36.0465L27.2734 47.9233L37.7076 41.948L42.0222 47.8466L48.1418 35.9698L43.8273 30.0712L39.5128 24.1667Z" fill="black"/>
<path d="M73.8912 3.28529H70.325V13.773H67.6532V3.28529H64.0869V0.915405H73.897V3.28529H73.8912Z" fill="black"/>
<path d="M73.9082 8.94634C73.9082 5.82319 75.61 3.89368 78.427 3.89368C81.244 3.89368 82.9458 5.82319 82.9458 8.94634C82.9458 12.0695 81.2382 13.999 78.427 13.999C75.6158 13.999 73.9082 12.0347 73.9082 8.94634ZM80.2334 9.89081V7.99606C80.2334 6.68075 79.5654 5.94487 78.4212 5.94487C77.277 5.94487 76.609 6.68075 76.609 7.99606V9.89081C76.609 11.2061 77.277 11.942 78.4212 11.942C79.5654 11.942 80.2334 11.2061 80.2334 9.89081Z" fill="black"/>
<path d="M84.9267 13.767V0.144531H87.5288V8.2624H87.6159L88.8473 6.48933L90.886 4.11945H93.7668L90.4968 7.81623L94.0805 13.7612H90.9847L88.7543 9.5893L87.523 10.9741V13.7612H84.9209L84.9267 13.767Z" fill="black"/>
<path d="M95.4918 17.0157L95.486 15.436H97.2807L97.6524 14.2424L94.2256 4.12549H96.8102L98.3378 8.85946L98.9883 11.5249H99.0929L99.8131 8.85946L101.306 4.12549H103.734L99.9525 15.3491C99.4588 16.7861 98.7037 17.4525 97.0716 17.4525H95.4918V17.2341V17.0157Z" fill="black"/>
<path d="M104.415 8.94634C104.415 5.82319 106.123 3.89368 108.934 3.89368C111.745 3.89368 113.453 5.82319 113.453 8.94634C113.453 12.0695 111.751 13.999 108.934 13.999C106.117 13.999 104.415 12.0347 104.415 8.94634ZM110.74 9.89081V7.99606C110.74 6.68075 110.072 5.94487 108.928 5.94487C107.784 5.94487 107.116 6.68075 107.116 7.99606V9.89081C107.116 11.2061 107.784 11.942 108.928 11.942C110.072 11.942 110.74 11.2061 110.74 9.89081Z" fill="black"/>
<path d="M119.44 7.40509C119.44 3.07672 121.763 0.689453 125.225 0.689453C127.525 0.689453 129.215 1.72664 130.162 3.66774L127.984 4.89614C127.56 3.85896 126.718 3.05354 125.225 3.05354C123.448 3.05354 122.274 4.1255 122.274 6.31576V8.36695C122.274 10.5572 123.453 11.6292 125.242 11.6292C126.665 11.6292 127.844 10.9454 127.844 9.61273V8.89423H125.417V6.66921H130.388V13.7731H128.123V11.7393H128.036C127.827 13.0198 126.648 13.999 124.714 13.999C121.746 13.999 119.44 11.7045 119.44 7.40509Z" fill="black"/>
<path d="M132.387 8.94634C132.387 5.89272 134.019 3.89368 136.906 3.89368C140.036 3.89368 141.355 6.17085 141.355 8.80148V9.58951H135.082V9.76334C135.082 11.096 135.802 11.9536 137.277 11.9536C138.439 11.9536 139.107 11.3915 139.705 10.7252L141.024 12.3013C140.199 13.3384 138.776 13.9874 136.998 13.9874C134.083 13.9874 132.393 12.0057 132.393 8.93475L132.387 8.94634ZM135.076 8.07139H138.66V7.89756C138.66 6.6344 138.061 5.8116 136.935 5.8116C135.808 5.8116 135.07 6.65178 135.07 7.91495V8.07139H135.076Z" fill="black"/>
<path d="M143.125 1.66877V1.28055C143.125 0.544667 143.584 0 144.636 0C145.687 0 146.146 0.544667 146.146 1.28055V1.66877C146.146 2.40465 145.687 2.94932 144.636 2.94932C143.584 2.94932 143.125 2.40465 143.125 1.66877ZM143.335 13.7673V4.12557H145.937V13.7673H143.335Z" fill="black"/>
<path d="M148.045 8.94613C148.045 5.68392 149.346 3.89347 151.791 3.89347C153.057 3.89347 154.091 4.64673 154.411 5.73607H154.498V0.144531H157.1V13.767H154.498V12.1562H154.428C154.115 13.2108 153.057 13.9988 151.791 13.9988C149.346 13.9988 148.045 12.191 148.045 8.94613ZM154.492 10.4005V7.47437C154.492 6.58204 153.72 6.00261 152.645 6.00261C151.571 6.00261 150.746 6.84279 150.746 8.12333V9.76893C150.746 11.0495 151.536 11.8897 152.645 11.8897C153.754 11.8897 154.492 11.3276 154.492 10.4005Z" fill="black"/>
<path d="M159.028 11.1717C159.028 9.13786 160.573 8.176 163.193 8.176H164.755V7.52704C164.755 6.542 164.261 5.93359 163.082 5.93359C161.973 5.93359 161.381 6.47826 160.957 7.10984L159.412 5.74238C160.167 4.61828 161.276 3.89978 163.262 3.89978C165.952 3.89978 167.357 5.16295 167.357 7.40535V11.7511H168.269V13.7675H166.829C165.841 13.7675 165.162 13.1012 165.017 12.0814H164.912C164.598 13.3272 163.524 13.9935 162.066 13.9935C160.114 13.9935 159.022 12.8346 159.022 11.1717H159.028ZM164.755 10.8588V9.64776H163.367C162.24 9.64776 161.642 10.0534 161.642 10.8066V11.0848C161.642 11.838 162.136 12.1915 162.995 12.1915C163.959 12.1915 164.755 11.7685 164.755 10.8588Z" fill="black"/>
<path d="M169.901 1.66877V1.28055C169.901 0.544667 170.36 0 171.411 0C172.462 0 172.921 0.544667 172.921 1.28055V1.66877C172.921 2.40465 172.462 2.94932 171.411 2.94932C170.36 2.94932 169.901 2.40465 169.901 1.66877ZM170.116 13.7673V4.12557H172.718V13.7673H170.116Z" fill="black"/>
<path d="M64 48.3943L72.573 22.5979H79.2059L87.7092 48.3943H82.1333L80.1933 42.0958H71.3358L69.4307 48.3943H64ZM72.6078 37.5531H78.8865L75.8198 27.4536H75.6455L72.6136 37.5531H72.6078Z" fill="#0000FF"/>
<path d="M91.0674 48.3946V29.0358H96.289V33.1555H96.4632C96.9221 31.0812 98.438 29.0358 101.476 29.0358H102.463V33.8914H101.052C97.8746 33.8914 96.289 34.6679 96.289 36.8813V48.3889H91.0674V48.3946Z" fill="#0000FF"/>
<path d="M112.515 48.3941C108.949 48.3941 107.05 46.4936 107.05 43.0112V33.0855H104.262V29.0353H105.673C107.119 29.0353 107.578 28.3341 107.578 26.9957V23.7914H112.271V29.0353H116.116V33.0855H112.271V44.3497H115.832V48.3999H112.515V48.3941Z" fill="#0000FF"/>
<path d="M129.105 48.3943V22.5979H138.701C145.508 22.5979 149.992 26.9263 149.992 35.5135C149.992 44.1007 145.514 48.3943 138.701 48.3943H129.105ZM134.466 43.6429H138.701C142.157 43.6429 144.346 41.7424 144.346 37.4836V33.5086C144.346 29.2498 142.157 27.3493 138.701 27.3493H134.466V43.6429Z" fill="#0000FF"/>
<path d="M157.263 48.3943H151.478L159.801 35.0905L151.826 22.5979H158.07L163.291 31.5038H163.396L168.687 22.5979H174.472L166.498 35.16L174.896 48.3943H168.687L162.972 38.7525H162.833L157.257 48.3943H157.263Z" fill="#0000FF"/>
</svg>
